<?xml version="1.0" encoding="utf-8"?>
<!-- Generator: Adobe Illustrator 16.0.0, SVG Export Plug-In . SVG Version: 6.00 Build 0)  -->
<!DOCTYPE svg PUBLIC "-//W3C//DTD SVG 1.1//EN" "http://www.w3.org/Graphics/SVG/1.1/DTD/svg11.dtd">
<svg version="1.1" id="图层_1" xmlns="http://www.w3.org/2000/svg" xmlns:xlink="http://www.w3.org/1999/xlink" x="0px" y="0px"
	 width="64px" height="64px" viewBox="0 0 64 64" enable-background="new 0 0 64 64" xml:space="preserve">
<g>
	<circle fill="#F05B19" cx="32" cy="32" r="32"/>
	<path fill="#FFFFFF" d="M33.738,34.506c-0.533,0.674-1.057,0.961-1.546,1.089c-0.139,0.032-0.278,0.054-0.406,0.063
		c-0.139-0.012-0.277-0.031-0.405-0.063c-0.501-0.128-1.024-0.415-1.558-1.089c0,0-2.73,2.391-0.362,5.121l1.141-1.066l1.152,1.771
		v0.063h0.01l0.021-0.031l0.011,0.031h0.01V40.33l1.152-1.77l1.142,1.065C36.471,36.896,33.738,34.506,33.738,34.506z
		 M33.941,38.484l-1.045-1.151l-1.109,1.558l-1.12-1.558l-1.035,1.151c-0.97-1.963,0.277-2.814,0.277-2.814
		c0.501,0.598,0.683,0.586,1.376,0.725c0.074,0.021,0.288,0.021,0.479,0.032v0.011c0,0,0.011-0.011,0.021-0.011
		c0,0,0.011,0.011,0.021,0.011v-0.011c0.192-0.011,0.406-0.011,0.469-0.032c0.706-0.139,0.875-0.127,1.375-0.725
		C33.652,35.67,34.9,36.521,33.941,38.484z"/>
	<path fill="#FFFFFF" d="M38.111,25.76c3.541-8.128-5.131-13.002-6.325-13.621c-1.206,0.619-9.877,5.493-6.336,13.621
		c0,0-5.291,3.979,0.523,10.475l3.328-4.319l1.621,1.589l0.864,0.171l0.864-0.171l1.611-1.589l3.327,4.319
		C43.402,29.739,38.111,25.76,38.111,25.76z M37.559,34.581l-3.222-4.234l-2.081,2.048l-0.47,0.117l-0.48-0.117l-2.08-2.048
		l-3.221,4.234c-4.256-4.8,0.693-8.533,0.693-8.533c-3.242-8.117,3.894-11.637,5.088-12.32c1.194,0.683,8.332,4.203,5.077,12.32
		C36.863,26.048,41.813,29.781,37.559,34.581z"/>
	<path fill="#FFFFFF" d="M31.787,17.195c-2.101,0-3.787,1.674-3.787,3.733c0,2.069,1.686,3.744,3.787,3.744
		c2.09,0,3.775-1.674,3.775-3.744C35.563,18.869,33.877,17.195,31.787,17.195z M31.787,23.669c-1.536,0-2.773-1.227-2.773-2.741
		c0-1.504,1.237-2.73,2.773-2.73c1.525,0,2.762,1.227,2.762,2.73C34.549,22.443,33.313,23.669,31.787,23.669z"/>
	<path fill="#FFFFFF" d="M15.392,52.734c0.172,0.088,0.365,0.223,0.624,0.365c0.653,0.336,1.517,0.396,2.583,0.396
		c1.065,0,2.544-0.077,3.504-0.202c-0.105,0.24-0.239,0.682-0.269,0.941c-0.682,0.048-2.305,0.104-3.265,0.104
		c-1.171,0-2.016-0.104-2.708-0.461c-0.451-0.231-0.768-0.519-0.998-0.519c-0.289,0-0.692,0.576-1.076,1.113l-0.605-0.854
		c0.461-0.479,0.922-0.836,1.316-0.979v-2.563h-1.143V49.24h2.036L15.392,52.734L15.392,52.734z M14.873,48.061
		c-0.288-0.403-0.883-1.076-1.325-1.557l0.71-0.461c0.452,0.451,1.066,1.096,1.364,1.479L14.873,48.061z M17.417,48.913
		c-0.028,1.259-0.24,2.862-1.104,3.938c-0.164-0.152-0.547-0.412-0.759-0.509c0.893-1.104,0.989-2.67,0.989-3.842v-2.083
		c1.623-0.077,3.505-0.25,4.581-0.548l0.749,0.71c-1.22,0.337-2.91,0.51-4.446,0.587v0.949h3.39l0.153-0.027l0.557,0.191
		c-0.269,1.124-0.73,2.046-1.335,2.784c0.557,0.471,1.075,0.933,1.431,1.287l-0.682,0.633c-0.327-0.354-0.807-0.807-1.345-1.295
		c-0.595,0.576-1.315,1.009-2.074,1.306c-0.106-0.222-0.327-0.547-0.5-0.72c0.701-0.25,1.364-0.646,1.939-1.162
		c-0.489-0.424-0.998-0.846-1.44-1.221l0.624-0.509c0.422,0.336,0.913,0.729,1.393,1.124c0.375-0.462,0.682-0.999,0.912-1.596
		L17.417,48.913L17.417,48.913z"/>
	<path fill="#FFFFFF" d="M31.291,46.109v8.451h-0.96v-0.52h-6.136v0.52h-0.922v-8.451H31.291z M30.331,53.206v-6.185h-6.136v6.185
		H30.331z M29.14,48.338v3.523h-3.784v-3.523H29.14z M28.247,49.125h-2.045v1.959h2.045V49.125z"/>
	<path fill="#FFFFFF" d="M34.859,47.225v5.963c0,0.5-0.104,0.76-0.422,0.902c-0.308,0.154-0.797,0.182-1.537,0.182
		c-0.047-0.248-0.191-0.662-0.325-0.9c0.547,0.02,1.036,0.02,1.19,0.009c0.162-0.009,0.211-0.048,0.211-0.19v-5.965h-1.47v-0.834
		h3.515v0.834H34.859L34.859,47.225z M39.191,50.979c0,1.201-0.461,2.65-2.805,3.572c-0.104-0.191-0.365-0.519-0.558-0.691
		c2.323-0.738,2.487-1.938,2.487-2.891v-1.834h0.873v1.844H39.191z M37.962,47.781c0.077-0.271,0.146-0.577,0.201-0.855h-1.948
		v-0.777h5.061v0.777h-2.16c-0.105,0.289-0.201,0.596-0.307,0.855h2.111v4.503h-0.863v-3.688h-2.632v3.707H36.6v-4.521H37.962z
		 M39.393,52.391c0.653,0.433,1.519,1.084,1.94,1.518l-0.604,0.672c-0.395-0.451-1.248-1.132-1.912-1.594L39.393,52.391z"/>
	<path fill="#FFFFFF" d="M46.583,47.839c-0.212,0.527-0.452,1.104-0.663,1.565h1.268v0.806h-5.013v-0.806h1.354
		c-0.086-0.424-0.316-1.057-0.547-1.536l0.777-0.202c0.249,0.479,0.489,1.113,0.586,1.536l-0.701,0.202h1.422
		c0.24-0.51,0.498-1.239,0.634-1.769L46.583,47.839z M46.967,47.637h-4.531V46.84h1.899c-0.097-0.298-0.229-0.643-0.354-0.922
		l0.808-0.23c0.183,0.364,0.374,0.816,0.479,1.152h1.699V47.637z M42.675,50.998h4.091v3.445h-0.884V54.07H43.52v0.441h-0.845
		V50.998z M43.52,51.805v1.488h2.362v-1.488H43.52z M50.816,46.58c-0.336,0.895-0.758,1.988-1.143,2.854
		c0.816,0.873,0.999,1.623,0.999,2.256c0,0.615-0.135,1.076-0.461,1.307c-0.163,0.115-0.375,0.184-0.596,0.211
		c-0.229,0.029-0.519,0.029-0.798,0.02c-0.01-0.229-0.086-0.604-0.221-0.846c0.25,0.029,0.479,0.029,0.645,0.029
		c0.145-0.01,0.277-0.038,0.374-0.096c0.183-0.115,0.239-0.385,0.239-0.711c0-0.566-0.229-1.248-1.026-2.064
		c0.315-0.77,0.672-1.768,0.901-2.506h-1.324v7.488H47.62v-8.297h2.438l0.135-0.037L50.816,46.58z"/>
</g>
</svg>
